<svg width="22" height="17" viewBox="0 0 22 17" fill="none" xmlns="http://www.w3.org/2000/svg">
<path d="M14.6598 11.5961C13.5519 11.5226 12.6809 10.5948 12.6809 9.46077C12.6809 9.42292 12.6816 9.38507 12.6838 9.34722V9.35241C12.6816 9.31679 12.6802 9.27522 12.6802 9.23292C12.6802 8.10107 13.5527 7.17629 14.654 7.10875H14.6598C15.7662 7.16961 16.6402 8.09216 16.6402 9.22179C16.6402 9.2678 16.6388 9.31308 16.6358 9.35835V9.35241C16.638 9.38952 16.6395 9.43331 16.6395 9.4771C16.6395 10.6075 15.7662 11.5315 14.665 11.5953H14.6591L14.6598 11.5961ZM7.35264 11.5961C6.24476 11.5226 5.3737 10.5948 5.3737 9.46077C5.3737 9.42292 5.37444 9.38507 5.37664 9.34722V9.35241C5.37444 9.31679 5.37297 9.27522 5.37297 9.23292C5.37297 8.10107 6.24549 7.17629 7.34678 7.10875H7.35264C8.45906 7.16961 9.33304 8.09216 9.33304 9.22179C9.33304 9.2678 9.33158 9.31308 9.32864 9.35835V9.35241C9.33084 9.38804 9.33231 9.4296 9.33231 9.47191C9.33231 10.6038 8.45979 11.5285 7.35851 11.5961H7.35264ZM18.6199 1.42947C17.3272 0.811963 15.8256 0.323597 14.2536 0.0408207L14.1444 0.0244925C14.1407 0.0237503 14.1363 0.0230082 14.1319 0.0230082C14.1062 0.0230082 14.0843 0.0371099 14.0725 0.0578913C13.9009 0.362934 13.7147 0.74368 13.5468 1.13408L13.5153 1.21646C12.7601 1.094 11.889 1.02423 11.0018 1.02423C10.1146 1.02423 9.24359 1.094 8.3938 1.22833L8.48838 1.21572C8.29042 0.748134 8.10125 0.368129 7.89228 0L7.92235 0.0571492C7.90988 0.0356255 7.88715 0.0222657 7.86149 0.0222657C7.85782 0.0222657 7.85342 0.022266 7.84976 0.0230082C6.16851 0.322113 4.66689 0.809736 3.26352 1.47549L3.37424 1.42798C3.36177 1.43318 3.35151 1.44209 3.34491 1.45322C1.25232 4.45243 0 8.1842 0 12.2121C0 12.8853 0.0351942 13.5495 0.103383 14.2041L0.0967838 14.1225C0.0989835 14.144 0.109982 14.1618 0.125379 14.1745C1.69445 15.3627 3.51868 16.3201 5.48735 16.9488L5.6164 16.9844C5.62226 16.9866 5.62959 16.9874 5.63693 16.9874C5.66039 16.9874 5.68092 16.9762 5.69338 16.9592C6.08565 16.4248 6.45886 15.8192 6.7822 15.1838L6.81666 15.1096C6.82106 15.1007 6.824 15.0896 6.824 15.0777C6.824 15.0473 6.80493 15.022 6.77854 15.0117H6.7778C6.10911 14.7504 5.54381 14.4721 5.00563 14.1529L5.06209 14.1841C5.04083 14.1715 5.0269 14.1485 5.0269 14.1225C5.0269 14.0995 5.03789 14.0787 5.05476 14.0661C5.16987 13.9785 5.28572 13.888 5.3957 13.7959C5.40743 13.7863 5.42283 13.7804 5.43896 13.7804C5.44922 13.7804 5.45876 13.7826 5.46682 13.7863H5.46609C7.08502 14.5738 8.9855 15.0339 10.9916 15.0339C12.9976 15.0339 14.8989 14.5738 16.5955 13.7522L16.517 13.7863C16.5258 13.7818 16.5354 13.7796 16.5464 13.7796C16.5625 13.7796 16.5779 13.7855 16.5896 13.7952C16.6996 13.8872 16.8147 13.9793 16.9313 14.0661C16.9482 14.0795 16.9592 14.1002 16.9592 14.1232C16.9592 14.1492 16.9452 14.1715 16.9254 14.1841C16.4408 14.4773 15.8755 14.7549 15.2867 14.9842L15.2097 15.0109C15.1833 15.0213 15.1643 15.0473 15.1643 15.077C15.1643 15.0888 15.1672 15.1 15.1723 15.1096C15.5397 15.8221 15.9121 16.4263 16.3242 17L16.2949 16.9577C16.3073 16.9755 16.3286 16.9874 16.3513 16.9874C16.3587 16.9874 16.366 16.9859 16.3726 16.9844C18.4733 16.3224 20.3004 15.3649 21.9193 14.1403L21.8717 14.1752C21.8878 14.1633 21.8981 14.1448 21.9003 14.124C21.9641 13.5421 22 12.8667 22 12.1831C22 8.16416 20.7447 4.44204 18.6104 1.39607L18.6485 1.45396C18.6426 1.44209 18.6324 1.43244 18.6206 1.42724L18.6199 1.42947Z" fill="#0D0D0D"/>
</svg>
