<svg width="35" height="40" viewBox="0 0 35 40" fill="none" xmlns="http://www.w3.org/2000/svg">
<path d="M18.2073 0.033349C20.3851 1.26719e-07 22.5469 0.0173414 24.7075 0C24.7793 2.70926 25.8755 5.14774 27.6197 6.95391L27.617 6.95124C29.4942 8.6467 31.9367 9.74588 34.6294 9.93264L34.6667 9.9353V16.6531C32.123 16.5891 29.731 16.0008 27.5744 14.9897L27.6835 15.035C26.6405 14.5321 25.7585 14.0159 24.9203 13.4396L24.9895 13.485C24.9735 18.3526 25.0055 23.2202 24.9562 28.0704C24.8192 30.5423 23.9997 32.7966 22.6853 34.6789L22.7119 34.6375C20.5141 37.7936 16.954 39.8653 12.9057 39.988H12.8871C12.7234 39.996 12.5305 40 12.3363 40C10.0347 40 7.88353 39.357 6.05027 38.2405L6.10349 38.2712C2.76691 36.2583 0.465355 32.814 0.0396342 28.8081L0.0343128 28.7534C0.0010534 27.9197 -0.0149112 27.086 0.0183482 26.2696C0.670232 19.8946 5.99706 14.963 12.472 14.963C13.1997 14.963 13.9128 15.0257 14.6059 15.1444L14.5314 15.1337C14.5647 17.6002 14.4649 20.068 14.4649 22.5345C13.9022 22.3304 13.2529 22.2117 12.5758 22.2117C10.0906 22.2117 7.97666 23.8044 7.1944 26.0281L7.18242 26.0682C7.00548 26.6378 6.90305 27.2927 6.90305 27.9704C6.90305 28.2452 6.92034 28.5173 6.95227 28.7841L6.94961 28.7521C7.39129 31.4814 9.72477 33.541 12.5385 33.541C12.6197 33.541 12.6995 33.5397 12.7793 33.5356H12.7673C14.7137 33.477 16.4033 32.4271 17.3585 30.8757L17.3718 30.8517C17.727 30.3555 17.9704 29.7552 18.0516 29.1029L18.0529 29.0842C18.2192 26.1002 18.1527 23.1335 18.1687 20.1494C18.1846 13.4316 18.1527 6.72981 18.2019 0.0293471L18.2073 0.033349Z" fill="white"/>
</svg>
